<svg width="109" height="94" viewBox="0 0 109 94" fill="none" xmlns="http://www.w3.org/2000/svg">
<path opacity="0.2" fill-rule="evenodd" clip-rule="evenodd" d="M97.6884 59.7901C94.775 71.2388 84.0271 78.4705 73.0552 82.6096C62.9114 86.4363 52.125 85.1867 42.3041 80.6836C31.5363 75.7463 19.6433 69.1049 17.8343 57.2896C16.0579 45.6867 26.5511 36.9329 34.25 28.0777C41.8045 19.3885 48.9778 8.26621 60.3967 8.33456C72.0295 8.40419 80.0004 18.9384 86.8522 28.3926C93.6658 37.794 100.571 48.4617 97.6884 59.7901Z" fill="#27AE60"/>
<path d="M11.2188 50.349L14.7665 54.7748L20.9833 47.0214" stroke="black" stroke-width="2.2319" stroke-linecap="round" stroke-linejoin="round"/>
<path d="M27.4932 50.349L31.0409 54.7748L37.2577 47.0214" stroke="black" stroke-width="2.2319" stroke-linecap="round" stroke-linejoin="round"/>
<path d="M43.7671 50.349L47.3149 54.7748L53.5317 47.0214" stroke="black" stroke-width="2.2319" stroke-linecap="round" stroke-linejoin="round"/>
<path d="M11.2188 63.6591L14.7665 68.0847L20.9833 60.3315" stroke="black" stroke-width="2.2319" stroke-linecap="round" stroke-linejoin="round"/>
<path d="M27.4932 63.6591L31.0409 68.0847L37.2577 60.3315" stroke="black" stroke-width="2.2319" stroke-linecap="round" stroke-linejoin="round"/>
<path d="M8.51709 39.601H63.8496" stroke="black" stroke-width="2.2319" stroke-linecap="round" stroke-linejoin="round"/>
<path d="M16.6543 22.9633H7.83367C6.20158 23.0663 4.67491 23.8226 3.58439 25.0683C2.49387 26.3139 1.92732 27.9487 2.00748 29.6184V69.5488C1.92732 71.2185 2.49387 72.8532 3.58439 74.0989C4.67491 75.3446 6.20158 76.1008 7.83367 76.2039H58.0235C59.6556 76.1008 61.1823 75.3446 62.2728 74.0989C63.3633 72.8532 63.9299 71.2185 63.8497 69.5488V29.6184C63.9299 27.9487 63.3633 26.3139 62.2728 25.0683C61.1823 23.8226 59.6556 23.0663 58.0235 22.9633H54.0851" stroke="black" stroke-width="2.2319" stroke-linecap="round" stroke-linejoin="round"/>
<path d="M47.5752 16.3082V29.6185" stroke="black" stroke-width="2.2319" stroke-linecap="round" stroke-linejoin="round"/>
<path d="M18.2812 16.3082V29.6185" stroke="black" stroke-width="2.2319" stroke-linecap="round" stroke-linejoin="round"/>
<path d="M24.791 22.9637L47.4448 22.9301" stroke="black" stroke-width="2.2319" stroke-linecap="round" stroke-linejoin="round"/>
</svg>
