<svg width="99" height="93" viewBox="0 0 99 93" fill="none" xmlns="http://www.w3.org/2000/svg">
<path opacity="0.7" fill-rule="evenodd" clip-rule="evenodd" d="M84.4209 58.9356C81.5491 70.2206 70.9548 77.3491 60.1397 81.429C50.141 85.201 39.5087 83.9693 29.8281 79.5305C19.2143 74.6638 7.4912 68.1173 5.70809 56.4708C3.95705 45.0338 14.3003 36.4051 21.8891 27.6765C29.3357 19.1115 36.4064 8.14809 47.6622 8.21547C59.1287 8.2841 66.9857 18.6677 73.7396 27.9868C80.4558 37.2539 87.2625 47.7691 84.4209 58.9356Z" fill="#E0E0F8"/>
<g clip-path="url(#clip0)">
<path d="M67.6496 63.9751C68.4366 63.9751 69.0746 63.3371 69.0746 62.5501C69.0746 61.7631 68.4366 61.1251 67.6496 61.1251C66.8626 61.1251 66.2246 61.7631 66.2246 62.5501C66.2246 63.3371 66.8626 63.9751 67.6496 63.9751Z" fill="#131336"/>
<path d="M93.3 56.85C93.3 56.0634 92.6616 55.425 91.875 55.425H43.425C42.6384 55.425 42 56.0634 42 56.85C42 57.6366 42.6384 58.275 43.425 58.275H91.875C92.6616 58.275 93.3 57.6366 93.3 56.85Z" fill="#131336"/>
<path d="M94.7248 24.0751H40.5748C38.2179 24.0751 36.2998 25.9931 36.2998 28.3501V65.4001C36.2998 67.757 38.2179 69.6751 40.5748 69.6751H56.2498C57.0364 69.6751 57.6748 69.0367 57.6748 68.2501C57.6748 67.4635 57.0364 66.8251 56.2498 66.8251H40.5748C39.7896 66.8251 39.1498 66.1852 39.1498 65.4001V28.3501C39.1498 27.5649 39.7896 26.9251 40.5748 26.9251H94.7248C95.51 26.9251 96.1498 27.5649 96.1498 28.3501V65.4001C96.1498 66.1852 95.51 66.8251 94.7248 66.8251H61.9498C61.1632 66.8251 60.5248 67.4635 60.5248 68.2501V73.9501C60.5248 74.7353 59.885 75.3751 59.0998 75.3751H57.6748C56.8882 75.3751 56.2498 76.0135 56.2498 76.8001C56.2498 77.5867 56.8882 78.2251 57.6748 78.2251H77.6248C78.4114 78.2251 79.0498 77.5867 79.0498 76.8001C79.0498 76.0135 78.4114 75.3751 77.6248 75.3751H76.1998C75.4146 75.3751 74.7748 74.7353 74.7748 73.9501V69.6751H94.7248C97.0817 69.6751 98.9998 67.757 98.9998 65.4001V28.3501C98.9998 25.9931 97.0817 24.0751 94.7248 24.0751ZM72.187 75.3751H63.1112C63.2722 74.9276 63.3748 74.4517 63.3748 73.9501V69.6751H71.9248V73.9501C71.9248 74.4517 72.0274 74.9276 72.187 75.3751Z" fill="#131336"/>
</g>
<defs>
<clipPath id="clip0">
<rect width="62.7" height="62.7" fill="white" transform="translate(36.2998 19.8001)"/>
</clipPath>
</defs>
</svg>
