<svg width="119" height="111" viewBox="0 0 119 111" fill="none" xmlns="http://www.w3.org/2000/svg">
<path fill-rule="evenodd" clip-rule="evenodd" d="M88.7268 79.7326C82.2527 90.1091 69.377 93.8625 57.2528 94.4948C46.0439 95.0794 35.7973 90.4548 27.5262 82.9246C18.4578 74.6684 8.81525 64.3774 10.7465 52.1541C12.6431 40.1506 25.7462 34.8159 36.125 28.5024C46.3092 22.3072 56.8824 13.5922 68.1243 17.2505C79.5768 20.9774 84.1265 33.8748 87.9119 45.355C91.6761 56.7711 95.1328 69.465 88.7268 79.7326Z" fill="#FFEFCD"/>
<path d="M72.478 86.6514V74.2604C72.478 69.6185 65.8758 66.5112 62.1267 63.7756L58.9019 61.4118C58.232 60.9218 57.4115 60.6821 56.5832 60.7343C55.7549 60.7865 54.971 61.1275 54.368 61.6978V61.6978C54.0182 62.0275 53.739 62.4249 53.5475 62.8658C53.3559 63.3067 53.2558 63.7819 53.2535 64.2627C53.2511 64.7434 53.3464 65.2196 53.5336 65.6624C53.7209 66.1051 53.9961 66.5053 54.3426 66.8384L61.2943 73.5328" stroke="#131336" stroke-width="2.31068" stroke-linecap="round" stroke-linejoin="round"/>
<path d="M60.1501 88.262C59.8672 87.0816 59.3539 85.9687 58.6396 84.9872C57.9254 84.0058 57.0242 83.1752 55.988 82.5431L51.0284 79.0482C49.8982 78.2485 48.9571 77.2108 48.2715 76.008C47.5859 74.8053 47.1724 73.4668 47.0601 72.0869L45.0712 47.6544C44.9922 46.692 45.2735 45.7345 45.8606 44.9678C46.4477 44.2011 47.2986 43.6798 48.2483 43.505V43.505C49.1993 43.3308 50.1811 43.5163 51.0031 44.0253C51.8251 44.5343 52.4285 45.3306 52.6964 46.2596L54.9427 56.8015" stroke="#131336" stroke-width="2.31068" stroke-linecap="round" stroke-linejoin="round"/>
<path d="M79.7402 86.6513V74.2602C79.7402 69.6184 86.3424 66.5111 90.0915 63.7755L93.3163 61.4212C93.9862 60.9312 94.8067 60.6915 95.635 60.7437C96.4633 60.796 97.2472 61.1369 97.8502 61.7072V61.7072C98.2 62.0369 98.4792 62.4343 98.6708 62.8752C98.8624 63.3161 98.9624 63.7914 98.9648 64.2721C98.9671 64.7528 98.8718 65.229 98.6846 65.6718C98.4974 66.1146 98.2221 66.5147 97.8756 66.8479L90.9239 73.5422" stroke="#131336" stroke-width="2.31068" stroke-linecap="round" stroke-linejoin="round"/>
<path d="M92.0684 88.262C92.3512 87.0816 92.8645 85.9687 93.5788 84.9872C94.293 84.0058 95.1942 83.1752 96.2305 82.5431L101.19 79.0482C102.32 78.2485 103.261 77.2108 103.947 76.008C104.633 74.8053 105.046 73.4668 105.158 72.0869L107.147 47.6544C107.226 46.692 106.945 45.7345 106.358 44.9678C105.771 44.2011 104.92 43.6798 103.97 43.505V43.505C103.019 43.3308 102.037 43.5163 101.215 44.0253C100.393 44.5343 99.7899 45.3306 99.522 46.2596L97.2758 56.8015" stroke="#131336" stroke-width="2.31068" stroke-linecap="round" stroke-linejoin="round"/>
<path d="M84.4974 25.4174C82.6984 25.421 80.9409 25.9586 79.4477 26.962C77.9545 27.9654 76.7927 29.3894 76.1096 31.0537C75.4253 29.3877 74.2615 27.9625 72.7659 26.959C71.2703 25.9555 69.5102 25.4189 67.7091 25.4174C65.211 25.6323 62.8868 26.7847 61.2035 28.643C59.5202 30.5013 58.6026 32.9279 58.6351 35.435C58.6351 46.409 73.7807 55.3337 76.1096 55.3337C78.4385 55.3337 93.5841 46.409 93.5841 35.435C93.6164 32.9259 92.697 30.4976 91.0111 28.639C89.3252 26.7803 86.9978 25.6292 84.4974 25.4174V25.4174Z" stroke="#131336" stroke-width="2.31068" stroke-linecap="round" stroke-linejoin="round"/>
</svg>
