<svg width="72" height="72" viewBox="0 0 72 72" fill="none" xmlns="http://www.w3.org/2000/svg">
<path d="M52.6554 21.4579V11.11H6.82931C5.65314 11.11 4.52513 10.6428 3.69345 9.81111C2.86176 8.97942 2.39453 7.85144 2.39453 6.67526V6.67526C2.39453 5.49908 2.86176 4.3711 3.69345 3.53942C4.52513 2.70773 5.65314 2.24048 6.82931 2.24048H49.6989V11.11" stroke="#FAFBFC" stroke-width="2.95652" stroke-miterlimit="10" stroke-linecap="round"/>
<path d="M2.39453 6.67529V65.8057C2.39453 66.9819 2.86176 68.1099 3.69345 68.9416C4.52513 69.7733 5.65314 70.2405 6.82931 70.2405H52.6554V59.8927" stroke="#FAFBFC" stroke-width="2.95652" stroke-miterlimit="10" stroke-linecap="round"/>
<path d="M51.1773 21.4579C47.0435 21.4611 43.0212 22.7995 39.7095 25.2736C36.3978 27.7478 33.9738 31.2254 32.7985 35.1886L26.0469 40.6753L32.7986 46.1619C33.8192 49.5734 35.7683 52.6339 38.4283 55.0014C41.0882 57.3688 44.3541 58.95 47.8609 59.5681C51.3678 60.1862 54.9774 59.8169 58.2865 58.5016C61.5955 57.1862 64.4736 54.9766 66.5991 52.1196C68.7246 49.2626 70.0137 45.8708 70.3224 42.3233C70.6311 38.7758 69.9472 35.2123 68.3472 32.0311C66.7472 28.85 64.294 26.1764 61.2619 24.3092C58.2298 22.442 54.7382 21.4548 51.1773 21.4579Z" stroke="#FAFBFC" stroke-width="2.95652" stroke-miterlimit="10"/>
<path d="M61.2604 41.9882C61.7906 41.3274 62.1821 40.5666 62.4117 39.7511C62.6412 38.9356 62.704 38.0822 62.5963 37.2419C62.4886 36.4016 62.2126 35.5917 61.7848 34.8604C61.357 34.1292 60.7862 33.4917 60.1065 32.986C59.4268 32.4804 58.6521 32.1169 57.8288 31.9173C57.0055 31.7178 56.1503 31.6863 55.3145 31.8246C54.4787 31.963 53.6794 32.2684 52.9643 32.7227C52.2492 33.177 51.633 33.7707 51.1526 34.4685C50.6721 33.7707 50.0559 33.177 49.3408 32.7227C48.6257 32.2684 47.8264 31.963 46.9906 31.8246C46.1548 31.6863 45.2997 31.7178 44.4764 31.9173C43.653 32.1169 42.8784 32.4804 42.1986 32.986C41.5189 33.4917 40.9481 34.1292 40.5203 34.8604C40.0926 35.5917 39.8166 36.4016 39.7089 37.2419C39.6012 38.0822 39.6639 38.9356 39.8935 39.7511C40.123 40.5666 40.5146 41.3274 41.0448 41.9882L41.054 42.0006C41.2876 42.2902 51.1526 52.4369 51.1526 52.4369C51.1526 52.4369 61.0177 42.2901 61.2511 42.0006L61.2604 41.9882Z" stroke="#FAFBFC" stroke-width="2.95652" stroke-miterlimit="10"/>
<path d="M9.78564 61.3708H21.6117" stroke="#FAFBFC" stroke-width="2.95652" stroke-miterlimit="10"/>
<path d="M9.78564 55.4579H21.6117" stroke="#FAFBFC" stroke-width="2.95652" stroke-miterlimit="10"/>
<path d="M9.78564 19.9796H36.3943" stroke="#FAFBFC" stroke-width="2.95652" stroke-miterlimit="10"/>
<path d="M29.0033 31.8057H11.2642V25.8927H29.0033" stroke="#FAFBFC" stroke-width="2.95652" stroke-miterlimit="10" stroke-linecap="round"/>
</svg>
