<svg id="Layer_1" data-name="Layer 1" xmlns="http://www.w3.org/2000/svg" viewBox="0 0 1067 305.03"><defs><style>.cls-1{fill:#1c89ff;}.cls-2{fill:#fcde79;}.cls-3{fill:#fe753f;}.cls-4{fill:#27ae60;}</style></defs><title>hero-image-flowers</title><path class="cls-1" d="M366.68,167.5c15.59,14.91,18.53,44.67,17.86,57.83-29.5-1.5-44.36-6.33-60-21.5-16.66-16.16-18.83-43.83-17.5-56C337.54,145.83,355.18,156.5,366.68,167.5Z" transform="translate(-306.72 -119.59)"/><path class="cls-2" d="M1332.06,132.49c10.74-11.2,32.18-13.32,41.66-12.84-1.08,21.21-4.56,31.89-15.49,43.13-11.64,12-31.57,13.53-40.33,12.58C1316.45,153.43,1324.14,140.76,1332.06,132.49Z" transform="translate(-306.72 -119.59)"/><path class="cls-3" d="M1184.89,369.73c-8.83-6.25-12.49-20.81-13.13-27.4,14.73-1.43,22.45-.13,31.32,6.25,9.45,6.8,12.57,20.38,12.81,26.52C1200.92,378.34,1191.4,374.34,1184.89,369.73Z" transform="translate(-306.72 -119.59)"/><path class="cls-4" d="M466.71,394.58c7.49-7.81,22.43-9.28,29-8.95-.75,14.78-3.17,22.23-10.79,30.06-8.11,8.35-22,9.43-28.11,8.77C455.84,409.18,461.19,400.34,466.71,394.58Z" transform="translate(-306.72 -119.59)"/></svg>