<svg width="17" height="17" viewBox="0 0 17 17" fill="none" xmlns="http://www.w3.org/2000/svg">
<g opacity="0.3" clip-path="url(#clip0)">
<path fill-rule="evenodd" clip-rule="evenodd" d="M3.84159 0.145076C4.03533 0.129004 5.03202 0.125488 8.43993 0.125488H11.0968C13.0114 0.128815 13.1204 0.144595 13.4841 0.197271L13.5052 0.200324C14.2922 0.313832 14.9527 0.627738 15.4927 1.14355C15.7953 1.43473 16.0037 1.7195 16.1914 2.10084C16.4202 2.56668 16.5326 3.0074 16.5841 3.66284C16.5951 3.80347 16.6001 6.04149 16.6001 8.28103C16.6001 10.5202 16.5955 12.7624 16.5844 12.903C16.5336 13.548 16.4212 13.9925 16.1996 14.4495C15.7589 15.3586 14.949 16.0216 13.9709 16.274C13.6162 16.3656 13.2954 16.4087 12.743 16.4347C12.5458 16.4447 10.4842 16.4472 8.42248 16.4472C6.3608 16.4472 4.30039 16.441 4.09824 16.4322C3.62111 16.4096 3.24946 16.3619 2.91296 16.2752C1.94114 16.0241 1.11622 15.3511 0.684294 14.4546C0.458288 13.9862 0.351563 13.558 0.295062 12.8775C0.278739 12.6841 0.274972 11.6884 0.274972 8.28316C0.274972 7.86594 0.274806 7.48734 0.274655 7.14318C0.274391 6.54096 0.274173 6.04422 0.274972 5.63065C0.278182 3.71377 0.29377 3.60622 0.346795 3.2404C0.347703 3.23413 0.348623 3.22779 0.349554 3.22136C0.463185 2.43509 0.777082 1.77362 1.29501 1.23596C1.5794 0.941142 1.86756 0.730825 2.23294 0.549387C2.70705 0.31333 3.14223 0.203211 3.84159 0.145076ZM5.95097 2.29661C6.59383 2.26735 6.79924 2.2602 8.43603 2.2602H8.43414C10.0714 2.2602 10.2761 2.26735 10.9189 2.29661C11.5606 2.32599 11.9988 2.42757 12.383 2.57661C12.7797 2.73043 13.115 2.93635 13.4502 3.2716C13.7855 3.6066 13.9914 3.94286 14.1458 4.33926C14.294 4.72248 14.3957 5.16044 14.4258 5.80206C14.4547 6.44494 14.4622 6.65036 14.4622 8.2872C14.4622 9.92403 14.4547 10.129 14.4258 10.7718C14.3957 11.4132 14.294 11.8513 14.1458 12.2346C13.9914 12.6309 13.7855 12.9672 13.4502 13.3022C13.1153 13.6374 12.7796 13.8438 12.3833 13.9978C11.9999 14.1468 11.5614 14.2484 10.9198 14.2778C10.277 14.307 10.0722 14.3142 8.43527 14.3142C6.79861 14.3142 6.59333 14.307 5.95047 14.2778C5.30899 14.2484 4.87091 14.1468 4.48745 13.9978C4.09132 13.8438 3.75507 13.6374 3.42021 13.3022C3.08509 12.9672 2.87917 12.6309 2.72511 12.2345C2.5762 11.8513 2.47462 11.4133 2.44512 10.7717C2.41599 10.1288 2.4087 9.92403 2.4087 8.2872C2.4087 6.65036 2.41624 6.44482 2.44499 5.80194C2.47387 5.16057 2.57557 4.72248 2.72499 4.33914C2.87942 3.94286 3.08534 3.6066 3.42058 3.2716C3.75557 2.93648 4.09182 2.73055 4.48821 2.57661C4.87141 2.42757 5.30936 2.32599 5.95097 2.29661ZM8.23515 3.34625C8.11328 3.3462 8.00035 3.34615 7.89537 3.34631V3.34481C6.77212 3.34606 6.55666 3.35359 6.00069 3.37871C5.41307 3.4057 5.09403 3.50364 4.88158 3.58651C4.60033 3.696 4.39944 3.82659 4.1885 4.03753C3.97756 4.24848 3.84673 4.44938 3.73749 4.73064C3.655 4.94309 3.55681 5.26202 3.52994 5.84965C3.50107 6.485 3.49529 6.67485 3.49529 8.28431C3.49529 9.89377 3.50107 10.0846 3.52994 10.72C3.55669 11.3076 3.655 11.6265 3.73749 11.8387C3.84698 12.1201 3.97756 12.3205 4.1885 12.5315C4.39944 12.7424 4.60033 12.873 4.88158 12.9822C5.09415 13.0647 5.41307 13.1629 6.00069 13.19C6.63602 13.2189 6.82674 13.2252 8.43603 13.2252C10.0452 13.2252 10.236 13.2189 10.8714 13.19C11.459 13.1632 11.7781 13.0652 11.9903 12.9824C12.2717 12.8731 12.472 12.7425 12.6829 12.5316C12.8939 12.3208 13.0247 12.1205 13.1339 11.8392C13.2164 11.627 13.3146 11.3081 13.3415 10.7205C13.3704 10.0851 13.3766 9.89427 13.3766 8.28582C13.3766 6.67736 13.3704 6.48651 13.3415 5.85116C13.3147 5.26353 13.2164 4.9446 13.1339 4.7324C13.0244 4.45114 12.8939 4.25024 12.6829 4.03929C12.4721 3.82835 12.2716 3.69776 11.9903 3.58852C11.7779 3.50603 11.459 3.40784 10.8714 3.38097C10.2359 3.35209 10.0452 3.34631 8.43603 3.34631C8.36648 3.34631 8.29957 3.34628 8.23515 3.34625ZM10.9299 5.07003C10.9299 4.67062 11.2538 4.34705 11.6531 4.34705V4.34679C12.0524 4.34679 12.3763 4.67075 12.3763 5.07003C12.3763 5.46932 12.0524 5.79327 11.6531 5.79327C11.2538 5.79327 10.9299 5.46932 10.9299 5.07003ZM5.341 8.2872C5.341 6.57796 6.72673 5.19215 8.4359 5.19208C10.1451 5.19208 11.5305 6.57792 11.5305 8.2872C11.5305 9.99648 10.1453 11.3817 8.43603 11.3817C6.72679 11.3817 5.341 9.99648 5.341 8.2872ZM10.445 8.2872C10.445 7.1776 9.54546 6.2782 8.43603 6.2782C7.32646 6.2782 6.42709 7.1776 6.42709 8.2872C6.42709 9.39667 7.32646 10.2962 8.43603 10.2962C9.54546 10.2962 10.445 9.39667 10.445 8.2872Z" fill="white"/>
</g>
<defs>
<clipPath id="clip0">
<rect width="16.5743" height="16.5743" fill="white" transform="translate(0.148438)"/>
</clipPath>
</defs>
</svg>
