<svg width="26" height="26" viewBox="0 0 26 26" fill="none" xmlns="http://www.w3.org/2000/svg">
<mask id="mask0" mask-type="alpha" maskUnits="userSpaceOnUse" x="1" y="1" width="24" height="24">
<path fill-rule="evenodd" clip-rule="evenodd" d="M13.0002 3.24998C7.61539 3.24998 3.25016 7.6152 3.25016 13C3.25016 18.3848 7.61539 22.75 13.0002 22.75C18.3849 22.75 22.7502 18.3848 22.7502 13C22.7502 7.6152 18.3849 3.24998 13.0002 3.24998ZM1.0835 13C1.0835 6.41859 6.41877 1.08331 13.0002 1.08331C19.5816 1.08331 24.9168 6.41859 24.9168 13C24.9168 19.5814 19.5816 24.9166 13.0002 24.9166C6.41877 24.9166 1.0835 19.5814 1.0835 13Z" fill="#061938"/>
<path d="M13.7662 7.90061C13.3431 7.47755 12.6572 7.47755 12.2341 7.90061C11.8111 8.32368 11.8111 9.00961 12.2341 9.43268L14.7181 11.9166H8.66683C8.06852 11.9166 7.5835 12.4017 7.5835 13C7.5835 13.5983 8.06852 14.0833 8.66683 14.0833H14.7181L12.2341 16.5673C11.8111 16.9903 11.8111 17.6763 12.2341 18.0993C12.6572 18.5224 13.3431 18.5224 13.7662 18.0993L18.0995 13.766C18.5226 13.3429 18.5226 12.657 18.0995 12.2339L13.7662 7.90061Z" fill="#061938"/>
</mask>
<g mask="url(#mask0)">
<rect width="26" height="26" fill="#1C89FF"/>
</g>
</svg>
