<svg width="17" height="17" viewBox="0 0 17 17" fill="none" xmlns="http://www.w3.org/2000/svg">
<path fill-rule="evenodd" clip-rule="evenodd" d="M16.2826 15.4068C16.2826 15.8912 15.8915 16.2886 15.4011 16.2886H1.16712C0.68293 16.2886 0.285645 15.8974 0.285645 15.4068V1.16745C0.285645 0.683079 0.68293 0.285645 1.16712 0.285645H15.4011C15.8853 0.285645 16.2826 0.676869 16.2826 1.16745V15.4068ZM11.3225 10.091V16.2885H8.83325V10.091H6.7475V7.67535H8.83325V5.8931C8.83325 3.8252 10.0934 2.70121 11.937 2.70121C12.8185 2.70121 13.5758 2.76331 13.7993 2.79435V4.96161H12.5206C11.5149 4.96161 11.3225 5.43357 11.3225 6.13529V7.67535H13.7124L13.402 10.091H11.3225Z" fill="white"/>
</svg>
