<svg width="23" height="17" viewBox="0 0 23 17" fill="none" xmlns="http://www.w3.org/2000/svg">
<path opacity="0.3" fill-rule="evenodd" clip-rule="evenodd" d="M20.5303 1.09972C21.5032 1.36164 22.2702 2.12871 22.5322 3.10158C23.0186 4.87894 22.9999 8.58333 22.9999 8.58333C22.9999 8.58333 22.9999 12.269 22.5322 14.0464C22.2702 15.0192 21.5032 15.7863 20.5303 16.0482C18.7529 16.516 11.6435 16.516 11.6435 16.516C11.6435 16.516 4.55277 16.516 2.7567 16.0295C1.78383 15.7676 1.01676 15.0005 0.754835 14.0277C0.287109 12.269 0.287109 8.56462 0.287109 8.56462C0.287109 8.56462 0.287109 4.87894 0.754835 3.10158C1.01676 2.12871 1.80254 1.34293 2.7567 1.08101C4.53406 0.613281 11.6435 0.613281 11.6435 0.613281C11.6435 0.613281 18.7529 0.613281 20.5303 1.09972ZM15.2919 8.56446L9.3798 11.9695V5.15941L15.2919 8.56446Z" fill="white"/>
</svg>
