<svg width="19" height="15" viewBox="0 0 19 15" fill="none" xmlns="http://www.w3.org/2000/svg">
<path fill-rule="evenodd" clip-rule="evenodd" d="M18.7116 1.97241C18.0328 2.26728 17.3045 2.46747 16.5406 2.55674C17.321 2.09685 17.9201 1.36644 18.2004 0.498062C17.4694 0.925488 16.6615 1.23388 15.8013 1.40161C15.1115 0.679312 14.1305 0.227539 13.0422 0.227539C10.9564 0.227539 9.26358 1.89396 9.26358 3.94723C9.26358 4.23939 9.29655 4.52344 9.36251 4.79396C6.22142 4.63977 3.4376 3.1573 1.57438 0.906551C1.2501 1.45571 1.06323 2.09415 1.06323 2.77586C1.06323 4.06626 1.73102 5.20516 2.74507 5.87064C2.12675 5.85171 1.54415 5.68398 1.033 5.40534C1.033 5.42158 1.033 5.4351 1.033 5.45133C1.033 7.25302 2.33561 8.75712 4.06416 9.09798C3.74813 9.18184 3.41286 9.22783 3.06935 9.22783C2.82477 9.22783 2.58843 9.20348 2.35759 9.1602C2.83851 10.6373 4.23455 11.7139 5.88616 11.7437C4.5918 12.7419 2.96492 13.3371 1.19239 13.3371C0.887354 13.3371 0.587811 13.3181 0.291016 13.2857C1.96186 14.3407 3.94874 14.9575 6.08402 14.9575C13.034 14.9575 16.8346 9.29005 16.8346 4.37465C16.8346 4.21234 16.8319 4.05273 16.8236 3.89312C17.5629 3.36831 18.2032 2.71364 18.7088 1.967L18.7116 1.97241Z" fill="white"/>
</svg>
