<svg width="75" height="69" viewBox="0 0 75 69" fill="none" xmlns="http://www.w3.org/2000/svg">
<path d="M63.7393 1.96167H69.9132C70.7319 1.96167 71.5171 2.2869 72.096 2.86582C72.6749 3.44473 73.0001 4.22991 73.0001 5.04863V43.7325" stroke="#FAFBFC" stroke-width="3.08696" stroke-miterlimit="10"/>
<path d="M2 43.6356V5.04863C2 4.22991 2.32523 3.44473 2.90415 2.86582C3.48306 2.2869 4.26824 1.96167 5.08696 1.96167H11.2609" stroke="#FAFBFC" stroke-width="3.08696" stroke-miterlimit="10"/>
<path d="M2 48.2661H73V52.8965C73 53.7153 72.6748 54.5004 72.0959 55.0794C71.5169 55.6583 70.7318 55.9835 69.913 55.9835H5.08696C4.26824 55.9835 3.48306 55.6583 2.90415 55.0794C2.32523 54.5004 2 53.7153 2 52.8965V48.2661Z" stroke="#FAFBFC" stroke-width="3.08696" stroke-miterlimit="10"/>
<path d="M29.7827 55.9834V57.5269L28.2393 65.2443V66.7877" stroke="#FAFBFC" stroke-width="3.08696" stroke-miterlimit="10"/>
<path d="M45.2173 55.9834V57.5269L46.7608 65.2443V66.7877" stroke="#FAFBFC" stroke-width="3.08696" stroke-miterlimit="10"/>
<path d="M23.6089 66.7878H51.3915" stroke="#FAFBFC" stroke-width="3.08696" stroke-miterlimit="10"/>
<path d="M11 48V2H64V7.41176H11" stroke="#FAFBFC" stroke-width="3.08696" stroke-miterlimit="10"/>
<path d="M63.7393 6.59204V48.266" stroke="#FAFBFC" stroke-width="3.08696" stroke-miterlimit="10"/>
</svg>
