<svg width="84" height="72" viewBox="0 0 84 72" fill="none" xmlns="http://www.w3.org/2000/svg">
<path d="M43.3911 37.1704V44.7577L60.7368 49.703C63.4544 50.7057 65.7993 52.5173 67.4556 54.8938C69.1118 57.2702 69.9998 60.0973 69.9998 62.9939V70.0001" stroke="white" stroke-width="3" stroke-linecap="round" stroke-linejoin="round"/>
<path d="M13.8262 65.5652V71.4782" stroke="white" stroke-width="3" stroke-miterlimit="10"/>
<path d="M24.2236 45.6086C24.7256 50.1604 29.8013 53.7391 35.9999 53.7391C42.1985 53.7391 47.2743 50.1604 47.7762 45.6086" stroke="white" stroke-width="3" stroke-miterlimit="10"/>
<path d="M36 38.9565C39.5285 38.9565 42.9126 37.5548 45.4076 35.0598C47.9027 32.5647 49.3043 29.1807 49.3043 25.6522V15.3043C49.3043 11.7758 47.9027 8.3918 45.4076 5.89675C42.9126 3.40171 39.5285 2 36 2C32.4715 2 29.0874 3.40171 26.5924 5.89675C24.0973 8.3918 22.6957 11.7758 22.6957 15.3043V25.6522C22.6909 27.8466 23.2301 30.0079 24.2652 31.9428C25.3002 33.8778 26.7987 35.526 28.6267 36.7401L28.6087 44.7576L11.3254 49.609C8.59244 50.6027 6.23155 52.4135 4.56323 54.7953C2.89491 57.1772 2 60.0147 2 62.9227V70" stroke="white" stroke-width="3" stroke-linecap="round" stroke-linejoin="round"/>
<path d="M58.1738 65.5652V71.4782" stroke="white" stroke-width="3" stroke-miterlimit="10"/>
<path d="M47.9047 15.3044H45.5868C43.8213 15.3297 42.0683 15.0052 40.4288 14.3498C38.7893 13.6944 37.2957 12.721 36.0341 11.4856V15.3044H27.1201" stroke="white" stroke-width="3" stroke-miterlimit="10" stroke-linecap="round"/>
<path d="M62.087 19.5812C64.3273 17.9076 67.0482 17.0022 69.8446 17C72.2535 16.9979 74.6154 17.6657 76.6666 18.9288C78.7177 20.1919 80.3772 22.0005 81.4596 24.1525C82.5419 26.3045 83.0046 28.7151 82.7957 31.1148C82.5869 33.5146 81.7148 35.8091 80.277 37.7417C78.8392 39.6744 76.8922 41.1692 74.6538 42.059C72.4153 42.9488 69.9735 43.1986 67.6012 42.7804C65.2289 42.3623 63.0196 41.2927 61.2203 39.6912C59.4209 38.0897 58.1024 36.0193 57.4119 33.7116C56.6659 30.4874 57.1011 27.4194 57.4119 26.2885C58.207 23.6074 59.8467 21.2549 62.087 19.5812Z" stroke="white" stroke-width="2" stroke-miterlimit="10"/>
<path d="M76.6658 30.8882C77.0245 30.4412 77.2894 29.9265 77.4446 29.3749C77.5999 28.8232 77.6424 28.2459 77.5695 27.6775C77.4967 27.109 77.31 26.5611 77.0206 26.0664C76.7312 25.5718 76.3451 25.1405 75.8853 24.7985C75.4255 24.4564 74.9014 24.2105 74.3444 24.0755C73.7875 23.9406 73.209 23.9192 72.6436 24.0128C72.0782 24.1064 71.5375 24.3131 71.0538 24.6203C70.57 24.9276 70.1532 25.3293 69.8282 25.8013C69.5032 25.3293 69.0863 24.9276 68.6026 24.6203C68.1189 24.3131 67.5781 24.1064 67.0127 24.0128C66.4473 23.9192 65.8689 23.9406 65.3119 24.0755C64.7549 24.2105 64.2309 24.4564 63.7711 24.7985C63.3113 25.1405 62.9252 25.5718 62.6358 26.0664C62.3464 26.5611 62.1597 27.109 62.0868 27.6775C62.014 28.2459 62.0565 28.8232 62.2117 29.3749C62.367 29.9265 62.6319 30.4412 62.9905 30.8882L62.9968 30.8966C63.1548 31.0925 69.8282 37.9564 69.8282 37.9564C69.8282 37.9564 76.5016 31.0924 76.6596 30.8966L76.6658 30.8882Z" stroke="white" stroke-width="2" stroke-miterlimit="10"/>
</svg>
