<svg width="60" height="60" viewBox="0 0 60 60" fill="none" xmlns="http://www.w3.org/2000/svg">
<path d="M58.0527 10.3118L42.7841 0.916364C40.8341 -0.282273 38.2582 -0.282273 36.3055 0.916364L21.2291 10.1959C20.7764 10.4741 20.1955 10.4645 19.7564 10.1686L5.37409 0.580909C4.80409 0.200455 4.14136 0 3.45682 0C1.55182 0 0 1.55045 0 3.45682V46.2027C0 47.6345 0.728182 48.9368 1.94727 49.6868L17.2159 59.0836C18.1541 59.6605 19.2382 59.9523 20.3277 59.9741C20.3714 59.9782 20.4095 60 20.4545 60C20.4995 60 20.5377 59.9782 20.5814 59.9741C21.6709 59.9523 22.755 59.6605 23.6945 59.0823L31.3964 54.3423C32.0373 53.9468 32.2364 53.1082 31.8423 52.4673C31.4482 51.825 30.6095 51.6245 29.9659 52.02L22.2655 56.76C22.125 56.8459 21.9682 56.8895 21.8182 56.9536V17.7273C21.8182 16.9745 21.2086 16.3636 20.4545 16.3636C19.7005 16.3636 19.0909 16.9745 19.0909 17.7273V56.9536C18.9409 56.8895 18.7841 56.8459 18.645 56.7614L3.37773 47.3659C2.97 47.115 2.72727 46.68 2.72727 46.2027V3.45682C2.72727 2.91 3.40909 2.54727 3.86182 2.85L18.2441 12.4391C19.5709 13.32 21.3 13.3527 22.6582 12.5195L37.7345 3.24136C37.8736 3.15409 38.0318 3.11045 38.1818 3.04636V25.9091C38.1818 26.6618 38.7914 27.2727 39.5455 27.2727C40.2995 27.2727 40.9091 26.6618 40.9091 25.9091V3.04636C41.0591 3.11045 41.2159 3.15409 41.355 3.23864L56.6223 12.6341C57.03 12.885 57.2727 13.32 57.2727 13.7973V56.5432C57.2727 57.09 56.5895 57.4527 56.1382 57.15L48.4827 52.0459C47.8527 51.6273 47.0086 51.7977 46.5914 52.4236C46.1727 53.0495 46.3418 53.8977 46.9691 54.315L54.6245 59.4191C55.1959 59.7995 55.8586 60 56.5432 60C58.4482 60 60 58.4495 60 56.5432V13.7973C60 12.3655 59.2718 11.0632 58.0527 10.3118Z" fill="#131336"/>
<path d="M39.5455 30C34.2832 30 30 34.2818 30 39.5455C30 46.695 38.0673 58.8777 38.4109 59.3932C38.6645 59.7723 39.09 60 39.5455 60C40.0009 60 40.4264 59.7723 40.68 59.3932C41.0236 58.8777 49.0909 46.695 49.0909 39.5455C49.0909 34.2818 44.8077 30 39.5455 30ZM39.5455 56.0864C37.3486 52.5027 32.7273 44.3918 32.7273 39.5455C32.7273 35.7859 35.7859 32.7273 39.5455 32.7273C43.305 32.7273 46.3636 35.7859 46.3636 39.5455C46.3636 44.3918 41.7423 52.5027 39.5455 56.0864Z" fill="#131336"/>
<path d="M39.5456 42.2727C41.0519 42.2727 42.2729 41.0516 42.2729 39.5454C42.2729 38.0392 41.0519 36.8181 39.5456 36.8181C38.0394 36.8181 36.8184 38.0392 36.8184 39.5454C36.8184 41.0516 38.0394 42.2727 39.5456 42.2727Z" fill="#131336"/>
</svg>
