<svg width="75" height="75" viewBox="0 0 75 75" fill="none" xmlns="http://www.w3.org/2000/svg">
<path d="M68.133 34.4223H1.96924C1.96548 41.5925 4.10364 48.6004 8.10952 54.5472C12.1154 60.494 17.8064 65.1087 24.4526 67.7994V73.0092H50.4859V67.7994C57.1321 65.1087 62.8231 60.494 66.829 54.5472C70.8348 48.6004 72.973 41.5925 72.9692 34.4223V32.4158" stroke="#FAFBFC" stroke-width="3.08696" stroke-linecap="round" stroke-linejoin="round"/>
<path d="M5.05615 73.0093H69.8822" stroke="#FAFBFC" stroke-width="3.08696" stroke-miterlimit="10" stroke-linecap="round"/>
<path d="M39.8359 66.7324H52.3349" stroke="#FAFBFC" stroke-width="3.08696" stroke-linecap="round" stroke-linejoin="round"/>
<path d="M18.7544 27.4767C15.9556 24.4307 14.3761 20.4611 14.317 16.3249L14.3169 5.44118H23.2305C27.0566 5.43534 30.7657 6.76057 33.7219 9.1897" stroke="#FAFBFC" stroke-width="3.08696" stroke-linecap="round" stroke-linejoin="round"/>
<path d="M27.3608 5.79043C29.6095 3.46015 32.683 2.10555 35.9201 2.01795C39.1572 1.93036 42.2994 3.1168 44.6708 5.32206" stroke="#FAFBFC" stroke-width="3.08696" stroke-linecap="round" stroke-linejoin="round"/>
<path d="M35.9258 25.1614V22.074C35.9258 16.7524 38.0398 11.6487 41.8028 7.88576C45.5657 4.1228 50.6694 2.00879 55.991 2.00879H66.7953V14.3566C66.7953 25.4383 53.1814 34.4218 42.0997 34.4218" stroke="#FAFBFC" stroke-width="3.08696" stroke-linecap="round" stroke-linejoin="round"/>
<path d="M60.6213 8.18311L42.0996 26.7048" stroke="#FAFBFC" stroke-width="3.08696" stroke-linecap="round" stroke-linejoin="round"/>
<path d="M52.9038 8.18311V15.9005" stroke="#FAFBFC" stroke-width="3.08696" stroke-linecap="round" stroke-linejoin="round"/>
<path d="M18.9473 9.72656L31.2951 22.0744" stroke="#FAFBFC" stroke-width="3.08696" stroke-linecap="round" stroke-linejoin="round"/>
<path d="M22.0342 18.9875H28.2081" stroke="#FAFBFC" stroke-width="3.08696" stroke-linecap="round" stroke-linejoin="round"/>
<path d="M20.491 32.8788C20.491 30.4227 19.5153 28.0671 17.7785 26.3304C16.0418 24.5936 13.6862 23.6179 11.2301 23.6179C8.77397 23.6179 6.41843 24.5936 4.68168 26.3304C2.94493 28.0671 1.96924 30.4227 1.96924 32.8788V34.4223" stroke="#FAFBFC" stroke-width="3.08696" stroke-linecap="round" stroke-linejoin="round"/>
<path d="M72.9694 32.8788C72.9694 30.4227 71.9937 28.0671 70.2569 26.3304C68.5202 24.5936 66.1646 23.6179 63.7085 23.6179" stroke="#FAFBFC" stroke-width="3.08696" stroke-linecap="round" stroke-linejoin="round"/>
<path d="M54.4474 22.0745H46.73" stroke="#FAFBFC" stroke-width="3.08696" stroke-linecap="round" stroke-linejoin="round"/>
<path d="M36.6975 29.7918C36.6975 30.218 36.352 30.5635 35.9258 30.5635C35.4996 30.5635 35.1541 30.218 35.1541 29.7918C35.1541 29.3655 35.4996 29.02 35.9258 29.02C36.352 29.02 36.6975 29.3655 36.6975 29.7918Z" fill="#FAFBFC" stroke="#FAFBFC" stroke-width="1.54348"/>
</svg>
